<svg id="usc_primary_monogram_cardinal_black" xmlns="http://www.w3.org/2000/svg" role="img" viewBox="0 0 72.65 24.14"><title>USC</title><path d="m24.62,4.93c0-.92-.22-1.36-.92-1.36h-1.25c-.16,0-.22-.05-.22-.24v-.62c0-.16.05-.22.27-.22.27,0,1.57.08,4.18.08,2.28,0,3.58-.08,3.91-.08.16,0,.22.05.22.19v.68c0,.16-.05.22-.22.22h-1.14c-.81,0-1.3.49-1.33,1.06-.03.33-.08,1.95-.08,3.53v3.36c0,1.36.03,3.28.08,4.15.08,1.25.3,2.5.95,3.36.92,1.25,2.39,1.68,3.69,1.68s2.77-.49,3.63-1.3c1.03-1.03,1.57-2.6,1.57-4.58v-4.88c0-2.17-.22-4.56-.3-5.18-.08-.7-.52-1.19-1.11-1.19h-.98c-.16,0-.22-.08-.22-.19v-.68c0-.16.05-.22.22-.22.27,0,1.52.08,3.31.08,1.68,0,2.55-.08,2.77-.08.24,0,.27.08.27.22v.62c0,.16-.03.24-.16.24h-.98c-.98,0-1.08.76-1.14,1.06-.05.33-.05,4.12-.05,4.47,0,.38-.05,5.1-.16,6.18-.16,2.22-.81,3.91-2.28,5.21-1.14,1.03-2.87,1.68-4.94,1.68-1.3,0-2.87-.22-3.91-.65-1.57-.65-2.66-1.9-3.2-3.63-.38-1.19-.49-2.98-.49-6.54v-6.43Z" fill="#FFCC00"/><path d="m42.68,15.73c.11,0,.16.05.16.22.05.87.27,1.9,1.03,3.09.81,1.3,2.22,1.95,3.58,1.95,1.46,0,3.53-.92,3.53-3.17,0-2.49-1.14-3.31-4.01-4.39-.87-.33-2.66-1.08-3.96-2.28-.92-.87-1.36-2.22-1.36-3.88,0-1.52.6-2.77,1.9-3.8,1.08-.92,2.28-1.3,3.85-1.3,1.79,0,2.87.43,3.42.65.27.11.43.05.57-.08l.35-.35c.11-.11.22-.16.38-.16s.22.16.22.43c0,.43.43,4.23.43,4.5,0,.11-.05.16-.16.19l-.43.14c-.11.03-.22,0-.27-.16-.27-.76-.71-1.84-1.68-2.87-.71-.76-1.57-1.14-2.82-1.14-2.17,0-3.04,1.74-3.04,2.74,0,.92.11,1.74.76,2.44.71.71,2.22,1.36,3.31,1.68,1.57.49,2.87,1.03,3.91,2.12.87.92,1.36,2.06,1.36,3.88,0,3.31-2.17,6.02-5.75,6.02-2.22,0-3.53-.49-4.61-1.3-.33-.22-.49-.33-.65-.33s-.27.22-.43.49c-.16.27-.27.33-.49.33s-.33-.16-.33-.43c.05-.33.43-4.72.49-5.04.03-.16.05-.22.16-.22l.6.05Z" fill="#FFCC00"/><path d="m72.24,17.35c.08.08.11.16.05.27-1.63,2.33-4.23,4.56-8.08,4.56-3.47,0-5.42-1.03-7.11-2.55-2.01-1.79-2.93-4.94-2.93-7.32,0-2.66.87-5.21,2.77-7.27,1.46-1.57,3.8-2.87,7.05-2.87,2.49,0,4.5.76,5.48,1.3.38.22.49.22.54,0l.22-.7c.05-.16.11-.16.43-.16s.38.05.38.43c0,.49.54,4.83.65,5.64.03.16,0,.24-.11.27l-.52.16c-.14.05-.22-.05-.3-.27-.33-.98-.98-2.33-2.12-3.53-1.19-1.14-2.6-2.01-4.72-2.01-4.34,0-6.13,3.91-6.13,7.81,0,1.68.49,4.88,2.49,7.05,1.79,1.9,3.36,2.12,4.67,2.12,2.98,0,5.34-1.49,6.48-3.15.14-.19.24-.27.33-.19l.46.41Z" fill="#FFCC00"/><path d="m16.44,14.71c-1.1,2.69-3.21,6.37-7.02,8.69-3.81-2.31-5.93-5.99-7.04-8.67-1.02-2.47-1.39-4.58-1.49-5.19.46-.26.91-.38,1.42-.38h0c.36,0,.87.07,1.16.15l.16.05c.15.05.31.09.47.14.56.16,1.2.33,1.68.33h0c.54,0,1.38-.07,2.32-.4.27-.09.59-.2.93-.24l.31-.02h.02l.48.04c.29.05.57.14.8.22.94.33,1.78.4,2.32.4h0c.33,0,.75-.07,1.33-.23.24-.06.48-.14.71-.2l.27-.08c.29-.08.82-.15,1.18-.15h0c.51,0,.98.12,1.43.37-.09.6-.46,2.72-1.48,5.21M.66,5.53l5.54,1.21c-.05.09-.09.17-.14.26l-5.43-.72c0-.24,0-.49.02-.75m.19-2.03l5.76,2.67c-.11.13-.21.26-.3.4L.69,5c.03-.48.08-.98.16-1.49m.15-.86c.22.05.66.13,1.23.19l4.68,3.02c-.06.06-.12.12-.18.18L.95,2.94c.02-.1.04-.2.06-.3m2.49.26c.6,0,1.17-.05,1.7-.15l2.36,2.64c-.18.1-.35.22-.51.35l-3.9-2.85c.11,0,.23,0,.35,0m3.01-.51l1.57,2.75c-.11.04-.21.09-.31.14l-1.99-2.66c.26-.07.5-.14.74-.23m2.07-1l.48,3.52c-.26.03-.52.08-.76.16l-1.31-2.86c.66-.26,1.19-.56,1.6-.82m.82-.6c.12.1.23.19.35.28l-.21,3.83s-.09,0-.13,0h0s-.09,0-.14,0l-.21-3.84c.15-.11.27-.21.35-.27m.82.6c.56.36,1.11.63,1.59.82l-1.31,2.85c-.24-.08-.49-.13-.75-.15l.48-3.52Zm2.06,1c.33.11.6.19.74.22l-1.99,2.67c-.1-.05-.2-.09-.31-.14l1.57-2.75Zm1.33.34c.58.1,1.19.16,1.81.15.08,0,.15,0,.22,0l-3.9,2.85c-.16-.13-.33-.24-.5-.35l2.37-2.66Zm2.93.1c.59-.06,1.03-.15,1.25-.21.02.1.04.2.06.3l-5.8,3.1c-.06-.06-.12-.12-.18-.18l4.67-3.02Zm1.41.66c.08.53.14,1.04.17,1.53l-5.61,1.57c-.1-.15-.21-.29-.32-.43l5.77-2.67Zm.22,2.8l-5.42.72c-.04-.09-.09-.17-.14-.26l5.54-1.21c0,.26.02.51.02.74m-1.65,1.16c-.34,0-.91.06-1.27.17l-.25.07c-.24.07-.48.14-.73.21h0c-.34.09-.82.21-1.19.22-.04-.32-.12-.63-.24-.92l5.33-.4c0,.37-.02.71-.05,1.01-.49-.23-1.05-.35-1.6-.36m-.02.68h0c-.35,0-.91.06-1.27.17l-.24.07c-.24.07-.49.14-.73.21l.04.15-.04-.15c-.35.09-.87.22-1.25.22h0c-.51,0-1.31-.07-2.21-.38-.23-.08-.53-.18-.85-.23-.18-.03-.35-.05-.52-.05-.13,0-.25,0-.37.02-.37.05-.71.16-1,.26-.9.32-1.7.39-2.22.39h0c-.44,0-1.05-.16-1.6-.31l-.63-.18c-.32-.09-.85-.16-1.25-.16h0c-.54,0-1.08.13-1.56.38-.01-.1-.02-.22-.03-.34.48-.25,1.06-.4,1.62-.4h0c.36,0,.87.07,1.16.15l.63.18.04-.15-.04.15c.59.17,1.21.33,1.68.33h0c.54,0,1.38-.07,2.32-.4.27-.1.59-.2.93-.24l.33-.02.48.04c.3.05.58.14.8.22.94.33,1.78.4,2.32.4h0c.33,0,.74-.07,1.33-.23h0c.25-.07.5-.14.74-.21l.25-.07c.29-.08.82-.15,1.18-.15h0c.54,0,1.11.14,1.57.38-.01.13-.02.25-.03.36-.48-.24-1.02-.38-1.57-.38m-7.07-.67v.02s0-.02,0-.02c-.12,0-.25,0-.37.03-.37.05-.72.16-1,.26-.77.27-1.47.36-1.98.38.23-1.67,1.64-2.91,3.34-2.91h0c1.68,0,3.11,1.26,3.34,2.9-.51-.02-1.19-.11-1.95-.37-.23-.08-.53-.18-.85-.23h0s0,0,0,0c-.18-.03-.35-.05-.52-.05M.65,6.8l5.33.4c-.12.29-.2.6-.24.93-.43-.02-1-.16-1.51-.31l-.63-.18c-.32-.09-.86-.16-1.25-.16h0c-.57,0-1.15.14-1.65.38-.02-.31-.04-.67-.05-1.05m15.84,2.02h0c-.34,0-.91.06-1.27.17l-.27.08c-.23.07-.47.14-.71.2l.04.15-.04-.15c-.56.15-.95.22-1.25.22h0c-.51,0-1.31-.07-2.21-.38-.24-.08-.54-.18-.85-.23-.32-.05-.6-.06-.9-.02-.37.05-.71.16-1,.26-.9.32-1.7.38-2.22.39h0c-.44,0-1.05-.16-1.6-.31l-.04.15.04-.15c-.16-.04-.32-.09-.47-.14l-.16-.05c-.32-.09-.86-.16-1.25-.16h0c-.53,0-1,.12-1.47.37-.01-.08-.03-.2-.05-.34.46-.25.99-.39,1.52-.39h0c.36,0,.87.07,1.16.15l.63.18.04-.15-.04.15c.59.17,1.21.33,1.68.33h0c.54,0,1.38-.07,2.32-.4.27-.1.59-.2.93-.24l.31-.02h.02l.48.04c.3.05.58.14.8.22.94.33,1.78.4,2.32.4h0c.32,0,.73-.07,1.33-.23.25-.07.5-.14.74-.21l.24-.07c.29-.08.81-.15,1.18-.15h0c.54,0,1.06.14,1.53.39-.02.14-.03.25-.05.33-.47-.23-.95-.36-1.48-.36m1.97-3.34l-.03-.55c-.04-.51-.1-1.04-.18-1.58l-.06-.37c-.03-.2-.07-.39-.12-.59l-.04-.17-.16.05s-.27.08-.71.15l-1.07.12c-.21.01-.44.02-.68.02-.62,0-1.23-.06-1.82-.16l-.38-.07s-.01,0-.02,0c0,0-.31-.07-.77-.22l-.5-.19c-.5-.2-1.09-.49-1.68-.88l-.49-.36c-.09-.07-.18-.15-.27-.23l-.11-.09-.1.1s-.09.08-.26.22l-.5.36c-.41.27-.98.6-1.69.88l-.5.19c-.24.08-.49.16-.76.23,0,0-.01,0-.02,0l-.43.09c-.51.09-1.06.14-1.64.14-.28,0-.56-.01-.81-.03l-1.07-.12c-.42-.07-.69-.13-.69-.13l-.16-.04-.04.16c-.03.16-.06.32-.09.47l-.08.48c-.08.53-.14,1.05-.18,1.55l-.03.55c-.01.27-.02.53-.02.78v.53c.03,1.5.21,2.53.23,2.61.02.13.33,2.54,1.53,5.45,1.13,2.73,3.29,6.47,7.17,8.83l.17.1.17-.1c3.88-2.37,6.03-6.11,7.15-8.85,1.19-2.91,1.5-5.33,1.52-5.45.02-.08.19-1.1.22-2.59v-.53c0-.25,0-.51-.01-.77" fill="#FFFFFF"/><path d="m13.92,12.95s-.11.08-.18.08h-1.21c-.14,0-.26-.11-.26-.26,0-.14.12-.26.26-.26h.2s0,0,0,0h0s.26,0,.26,0h.75c.14,0,.26.11.26.26,0,.07-.03.13-.08.18m-.24.44s-.11.07-.19.07h-.74c-.12,0-.21-.09-.24-.24,0,0,0,0,.01,0h1.21s.01,0,.02,0c-.01.07-.04.14-.08.18m-.3,3.11h-.49s-.13-2.85-.13-2.85h.74s0,0,.02,0l-.13,2.85Zm.32.4c0,.11-.09.21-.21.21h-.7s0,.1,0,.1v-.1c-.11,0-.21-.09-.21-.21s.09-.21.21-.21h.4s.31,0,.31,0c.11,0,.21.09.21.21m-.57,1.76c-.08,0-.15-.07-.15-.16l-.05-1.2h.42l-.06,1.21c0,.09-.07.15-.15.15m-.97-6.75c0-.16.07-.29.13-.43.08-.17.17-.35.14-.58.12.05.27.13.38.25,0,0,0,0,0,0-.03.03-.06.06-.08.09,0,0-.49.48-.14,1.08h-.06s-.07,0-.1.01c-.05-.02-.26-.13-.26-.42m1.05-1.03c.03-.08.03-.16.01-.24.2.18.43.46.43.81,0,.43-.27.75-.38.87h-.07c-.09-.12-.25-.38-.08-.68.03-.06.19-.3.21-.35.03-.06.02-.11.02-.11-.03.04-.07.09-.07.09-.05.05-.2.21-.25.27-.26.31-.08.66-.02.77h-.22c-.38-.52.03-.92.05-.95.03-.03.06-.06.08-.09.11-.12.2-.22.27-.4m.57.16c.08-.1.16-.16.22-.2-.05.44.18.88.19.89.11.38-.27.56-.36.6-.03,0-.07-.01-.1-.01h-.19c.14-.18.32-.49.32-.87,0-.16-.07-.41-.07-.41m.25,1.4c.22-.13.45-.39.33-.78,0,0-.27-.53-.14-.95l.04-.14-.15.02s-.22.04-.45.29c-.23-.37-.6-.6-.62-.61l-.37-.22.24.35c.04.06.15.27.11.41-.03.07-.06.13-.1.18-.24-.25-.61-.35-.63-.35l-.19-.05.08.18c.11.25.02.42-.07.61-.07.15-.15.31-.15.52,0,.26.13.43.26.53-.09.08-.15.2-.15.33,0,.17.1.32.24.39.02.23.12.37.25.44l.13,2.92c-.18.04-.31.19-.31.38,0,.2.15.36.34.39l.06,1.22c0,.19.15.34.34.34s.34-.15.34-.34l.06-1.22c.2-.02.36-.19.36-.39,0-.19-.14-.35-.32-.39l.13-2.92s.08-.04.11-.07c.09-.09.13-.22.14-.38.03-.02.07-.04.09-.06.08-.08.13-.2.13-.32,0-.13-.06-.25-.14-.33" fill="#FFFFFF"/><path d="m6.2,13.04h-1.21c-.14,0-.26-.11-.26-.25,0-.07.03-.13.07-.18.05-.05.11-.08.18-.08h.2s0,0,0,0h0s.26,0,.26,0h.38s.37,0,.37,0c.14,0,.26.11.26.26,0,.14-.12.26-.26.26m-.05.37s-.11.07-.19.07h-.74c-.12,0-.21-.09-.24-.24,0,0,0,0,.01,0h1.21s.01,0,.02,0c-.01.07-.03.14-.07.18m-.3,3.11h-.49s-.13-2.85-.13-2.85h.74s0,0,.01,0l-.13,2.85Zm.32.4c0,.06-.02.11-.06.15-.04.04-.09.06-.15.06h-.7v.1s0-.1,0-.1c-.11,0-.21-.09-.21-.21s.09-.21.21-.21h.7c.12,0,.21.09.21.21m-.57,1.76c-.08,0-.15-.07-.15-.16l-.05-1.2h.42s-.06,1.21-.06,1.21c0,.08-.07.15-.15.15m-.97-6.75c0-.16.06-.29.13-.43.08-.17.17-.35.14-.58.12.05.27.13.38.25,0,0,0,0,0,0-.03.03-.06.06-.08.09,0,0-.49.48-.14,1.08h-.06s-.06.01-.09.02c-.02,0-.27-.11-.27-.43m1.05-1.03c.03-.08.03-.16.01-.24.2.18.43.46.43.81,0,.43-.27.75-.38.87h-.07c-.09-.12-.25-.38-.08-.68.03-.06.19-.3.21-.35.02-.06.02-.11.02-.11-.03.04-.07.09-.07.09-.05.05-.2.21-.25.27-.26.31-.08.66-.02.77h-.22c-.38-.52.03-.92.05-.95.03-.03.06-.06.08-.09.11-.12.2-.22.27-.4m.57.16c.08-.1.16-.16.22-.2-.05.44.18.88.19.89.11.38-.27.56-.36.6-.03,0-.07-.01-.1-.01h-.19c.14-.19.32-.49.32-.87,0-.16-.07-.41-.07-.41m.25,1.4c.22-.13.44-.39.33-.78,0,0-.28-.53-.14-.95l.05-.14-.15.02s-.22.04-.45.29c-.23-.37-.6-.6-.62-.61l-.36-.21.23.35c.04.07.15.27.11.41-.03.07-.06.13-.1.18-.24-.25-.61-.35-.63-.35l-.19-.05.08.18c.11.24.02.42-.07.61-.07.15-.15.31-.15.52,0,.28.14.45.26.53,0,0-.01,0-.02.01-.08.08-.13.2-.13.32,0,.17.1.32.24.39.02.2.11.36.25.44l.13,2.92c-.18.04-.31.19-.31.38,0,.2.15.36.34.39l.06,1.22c0,.19.16.35.34.35s.34-.16.34-.34l.06-1.22c.09,0,.18-.04.24-.11.08-.08.12-.18.12-.28,0-.19-.14-.35-.32-.39l.13-2.91s.08-.04.12-.07c.09-.08.13-.21.14-.37.13-.08.23-.22.23-.39,0-.13-.06-.24-.14-.33" fill="#FFFFFF"/><path d="m10.53,13.52c-.08.08-.18.12-.28.12h-1.69c-.22,0-.4-.18-.4-.4,0-.22.18-.4.4-.4,0,0,1.13,0,1.13,0h.56c.22,0,.4.18.4.4,0,.11-.04.21-.12.28m-.62.67h-1.03s0,0,0,0c-.16,0-.31-.18-.37-.37.02,0,.03,0,.05,0h1.69s.04,0,.06,0c-.06.18-.23.37-.4.37m-.13,4.31h-.76s-.19-4.12-.19-4.12c.01,0,.03,0,.04,0h1.03s.04,0,.06,0l-.19,4.12Zm.45.52c0,.18-.15.33-.33.33h-.98c-.18,0-.33-.15-.33-.33,0-.18.15-.33.33-.33h.74s.24,0,.24,0c.18,0,.33.15.33.33m-.58,2.25c0,.07-.03.13-.07.18-.05.05-.11.07-.18.07h0c-.07,0-.13-.03-.18-.07-.05-.05-.07-.11-.07-.18l-.08-1.72h.66s-.08,1.73-.08,1.73Zm-1.65-9.23c0-.23.09-.42.19-.62.13-.26.25-.52.17-.87.17.06.42.18.61.39-.02.02-.04.05-.07.07-.04.04-.08.08-.11.12,0,0-.7.68-.16,1.52h-.08c-.05,0-.1,0-.15.02-.04-.02-.4-.17-.4-.63m1.41-1.45c.05-.15.03-.31,0-.45.3.24.74.69.74,1.26,0,.62-.4,1.1-.55,1.25h-.05c-.08-.12-.17-.31-.17-.53,0-.42.2-.67.2-.67,0,0-.26.18-.3.56-.02.19.02.38.14.63h-.25c-.09-.14-.35-.54-.08-.99.05-.08.32-.43.34-.49.03-.08.03-.15.03-.15-.04.06-.1.13-.1.13-.06.07-.28.3-.35.38-.39.48-.07,1,0,1.12h-.15c-.58-.76.03-1.35.06-1.39.04-.04.08-.09.11-.12.15-.16.28-.3.37-.55m1.22.09c-.12.6.08,1.09.08,1.1.16.55-.23.82-.35.88-.04,0-.08-.01-.12-.01h-.38c.2-.24.49-.69.48-1.25,0-.15-.03-.28-.07-.41.14-.17.27-.26.37-.31m-.06,2.07c.2-.15.48-.49.33-1.04,0,0-.22-.56-.03-1.16l.04-.14-.15.02s-.27.04-.57.36c-.29-.61-.92-.99-.95-1.01l-.32-.19.19.32s.21.36.12.61c-.04.11-.09.19-.14.27-.33-.35-.84-.47-.86-.48l-.19-.04.08.18c.16.36.03.61-.1.89-.1.21-.21.43-.21.71,0,.38.2.62.38.74-.14.11-.23.28-.23.47,0,.23.14.43.33.53.03.22.16.44.35.55h0s.19,4.19.19,4.19c-.24.04-.43.26-.43.51,0,.27.21.49.48.52l.08,1.73c0,.12.05.23.13.31.08.08.19.13.31.13h0c.12,0,.23-.05.31-.13.08-.08.13-.2.13-.31l.08-1.73c.28-.01.5-.24.5-.52,0-.26-.2-.48-.45-.51l.19-4.2h0c.19-.11.33-.34.35-.55.05-.03.1-.06.14-.1.11-.11.17-.26.17-.42,0-.2-.1-.38-.26-.49" fill="#FFFFFF"/></svg>